<?xml version="1.0" standalone="no"?>
<!DOCTYPE svg PUBLIC "-//W3C//DTD SVG 20010904//EN"
 "http://www.w3.org/TR/2001/REC-SVG-20010904/DTD/svg10.dtd">
<svg version="1.0" xmlns="http://www.w3.org/2000/svg"
 width="112.000000pt" height="112.000000pt" viewBox="0 0 112.000000 112.000000"
 preserveAspectRatio="xMidYMid meet">
<metadata>
Created by potrace 1.11, written by Peter Selinger 2001-2013
</metadata>
<g transform="translate(0.000000,112.000000) scale(0.100000,-0.100000)"
fill="#000000" stroke="none">
<path d="M526 1092 c-4 -7 -12 -10 -17 -7 -5 4 -9 0 -9 -8 0 -8 -9 -22 -20
-32 -12 -10 -20 -13 -20 -6 0 8 -6 8 -22 -1 -13 -7 -25 -15 -28 -18 -3 -3 -9
-6 -15 -7 -5 -1 -18 -5 -27 -8 -13 -5 -18 -2 -18 9 0 9 -4 16 -10 16 -5 0 -10
-6 -10 -14 0 -16 -26 -39 -48 -42 -9 -2 -41 -29 -72 -62 -50 -54 -55 -63 -55
-104 1 -26 7 -54 15 -64 14 -16 13 -17 -3 -11 -11 4 -16 3 -12 -4 4 -6 -1 -19
-11 -30 -9 -10 -13 -19 -8 -19 5 0 0 -7 -10 -15 -17 -13 -17 -15 -4 -15 14 0
15 -5 8 -30 -5 -18 -5 -30 1 -30 5 0 9 -7 9 -16 0 -13 -3 -14 -15 -4 -20 16
-45 6 -45 -19 0 -34 39 -113 59 -118 10 -3 23 -20 29 -41 22 -72 65 -125 128
-159 32 -17 79 -34 104 -38 54 -9 70 -20 70 -50 0 -31 -78 -69 -167 -81 -59
-8 -113 -36 -113 -58 0 -3 180 -6 400 -6 l400 0 -15 24 c-19 28 -36 35 -167
72 -97 26 -109 36 -100 76 2 9 22 24 45 33 127 51 228 152 230 230 1 19 6 35
13 35 13 0 44 75 44 107 0 40 -10 53 -36 47 -13 -3 -24 -2 -25 2 -2 26 -9 54
-23 97 -8 26 -12 47 -8 47 4 0 -1 5 -11 11 -9 6 -15 14 -12 19 3 4 -2 10 -10
13 -11 5 -12 13 -5 37 10 36 4 56 -31 97 -23 27 -64 57 -80 58 -5 0 -40 16
-113 51 -25 13 -28 13 -22 -1 5 -13 0 -15 -27 -10 -17 4 -40 6 -49 6 -10 0
-18 7 -18 15 0 8 -5 14 -11 14 -5 0 -7 -4 -4 -10 3 -5 4 -10 0 -10 -3 0 -9 10
-14 22 -5 14 -10 18 -15 10z"/>
</g>
</svg>
