<?xml version="1.0" standalone="no"?>
<!DOCTYPE svg PUBLIC "-//W3C//DTD SVG 20010904//EN"
 "http://www.w3.org/TR/2001/REC-SVG-20010904/DTD/svg10.dtd">
<svg version="1.0" xmlns="http://www.w3.org/2000/svg"
 width="126.000000pt" height="126.000000pt" viewBox="0 0 126.000000 126.000000"
 preserveAspectRatio="xMidYMid meet">
<metadata>
Created by potrace 1.11, written by Peter Selinger 2001-2013
</metadata>
<g transform="translate(0.000000,126.000000) scale(0.100000,-0.100000)"
fill="#000000" stroke="none">
<path d="M414 1173 c1 -45 -1 -48 -38 -68 -24 -12 -47 -36 -59 -58 -10 -20
-23 -37 -29 -37 -15 0 -104 -94 -122 -128 -53 -103 -5 -185 135 -228 l56 -17
-62 -103 c-62 -102 -76 -141 -71 -199 2 -16 4 -42 4 -57 1 -15 8 -33 15 -40 7
-7 20 -28 29 -45 16 -32 16 -33 -3 -33 -51 0 -113 25 -146 58 -34 34 -35 37
-30 91 4 31 14 76 23 101 19 51 25 204 8 232 -7 13 -10 -3 -9 -61 0 -77 -2
-83 -53 -182 -59 -112 -61 -131 -20 -197 36 -58 150 -90 223 -62 24 9 30 7 51
-15 63 -69 222 -97 354 -63 102 26 184 43 200 41 8 -1 27 -4 41 -6 30 -5 89
17 89 33 0 6 -4 19 -9 29 -13 24 16 81 41 81 10 0 22 9 26 19 8 21 0 23 129
-27 37 -14 54 -17 62 -9 17 17 13 27 -9 27 -12 0 -32 11 -45 24 -17 17 -25 20
-29 11 -4 -11 -18 -9 -69 7 -60 20 -64 23 -65 53 -1 18 -9 54 -18 80 -17 51
-11 64 28 65 26 0 50 59 39 97 -9 31 -9 31 40 43 64 16 94 40 112 94 37 108
-1 203 -106 265 -35 21 -57 41 -57 52 0 30 -48 76 -105 100 -43 18 -55 28 -60
51 l-7 28 -242 0 -243 0 1 -47z"/>
</g>
</svg>
