<svg version="1.1" id="Ebene_1" 
  xmlns="http://www.w3.org/2000/svg" x="0" y="0" viewBox="0 0 677 127" xml:space="preserve">
  <style>
    .st0{fill:#fff}.st1{fill:#5a5aff}
  </style>
  <path class="st0" d="M3.3 3.5h58.2c9.7 0 16.7 2.2 21.1 6.6 4.4 4.4 6.6 11.4 6.6 21.1v12.5c0 7.7-1.3 13.6-3.8 17.9-2.5 4.3-6.6 7.1-12.1 8.5l17.3 30.5h-27l-16-29.2H28.2v29.1H3.3v-97zm61 27.7c0-5.5-2.8-8.3-8.3-8.3H28.2V52h27.7c5.5 0 8.3-2.8 8.3-8.3V31.2zM105.1 28.4c16.9-1.8 32.2-2.8 45.7-2.8 6.3 0 11.3 1.9 15.1 5.7 3.8 3.8 5.7 8.8 5.7 15.1v54.1h-21.5l-1.4-6.9c-4.3 2.9-8.8 5-13.4 6.3-4.6 1.3-8.4 2-11.6 2H119c-6.3 0-11.3-1.9-15.1-5.7-3.8-3.8-5.7-8.8-5.7-15.1v-6.2c0-6.3 1.9-11.3 5.7-15.1 3.8-3.8 8.8-5.7 15.1-5.7h28.4v-5.5a5 5 0 00-1.4-3.5c-.9-.9-2.1-1.4-3.5-1.4-6 0-12.6.3-19.9.8-7.3.6-13.1 1-17.5 1.2V28.4zm25.7 54.1c4.9 0 10.4-.9 16.6-2.8v-8.3h-20.1a5 5 0 00-3.5 1.4c-.9.9-1.4 2.1-1.4 3.5v1.4a5 5 0 001.4 3.5c.9.9 2.1 1.4 3.5 1.4h3.5zM202.2 125.4c-4.9 0-10.9-.5-18-1.4v-18h12.5c3.5 0 5.8-1 6.9-2.9 1.1-1.9.9-4.7-.6-8.2L174.4 27H200l17.3 47.1L232 27h25.6l-27.7 76.2c-2.7 7.3-6.1 12.8-10.4 16.6-4.3 3.8-10 5.6-17.3 5.6zM263.1 3.5h58.2c9.7 0 16.7 2.2 21.1 6.6 4.4 4.4 6.6 11.4 6.6 21.1v12.5c0 7.7-1.3 13.6-3.8 17.9-2.5 4.3-6.6 7.1-12.1 8.5l17.3 30.5h-27l-15.9-29.1h-19.4v29.1h-24.9V3.5zm61 27.7c0-5.5-2.8-8.3-8.3-8.3h-27.7V52h27.7c5.5 0 8.3-2.8 8.3-8.3V31.2zM429.4 99.1c-17.8 1.8-34 2.8-48.5 2.8-6.3 0-11.3-1.9-15.1-5.7-3.8-3.8-5.7-8.8-5.7-15.1V47.8c0-6.9 2-12.4 5.9-16.3 3.9-3.9 9.4-5.9 16.3-5.9H410c6.9 0 12.4 2 16.3 5.9 3.9 3.9 5.9 9.4 5.9 16.3v25.6h-47.8V79a5 5 0 001.4 3.5c.9.9 2.1 1.4 3.5 1.4 9.1 0 22.5-.7 40.2-2.1v17.3zM389.9 43c-3.7 0-5.5 1.8-5.5 5.5v7.6H408v-7.6c0-3.7-1.8-5.5-5.5-5.5h-12.6zM462.7 125.4c-4.9 0-10.9-.5-18-1.4v-18h12.5c3.5 0 5.8-1 6.9-2.9 1.1-1.9.9-4.7-.6-8.2L435 27h25.6L478 74.1 492.5 27h25.6l-27.7 76.2c-2.7 7.3-6.1 12.8-10.4 16.6-4.2 3.8-10 5.6-17.3 5.6z"/>
  <path class="st1" d="M570.8 100.5h-24.9V22.9h-29.1V3.5H600v19.4h-29.1v77.6z"/>
  <path class="st1" d="M650.5 27h25.6l-27.7 73.5h-27.7L593 27h25.6l15.9 49.9 16-49.9z"/>
</svg>
